<?xml version="1.0" standalone="no"?>
<!DOCTYPE svg PUBLIC "-//W3C//DTD SVG 20010904//EN"
 "http://www.w3.org/TR/2001/REC-SVG-20010904/DTD/svg10.dtd">
<svg version="1.0" xmlns="http://www.w3.org/2000/svg"
 width="500.000000pt" height="500.000000pt" viewBox="0 0 500.000000 500.000000"
 preserveAspectRatio="xMidYMid meet">

<g transform="translate(0.000000,500.000000) scale(0.100000,-0.100000)"
fill="#000000" stroke="none">
<path d="M3565 4415 c-5 -2 -27 -6 -48 -10 -45 -7 -110 -62 -137 -115 -11 -21
-32 -82 -49 -136 -47 -154 -54 -174 -62 -174 -4 0 -13 -17 -19 -37 -7 -21 -30
-81 -52 -133 -23 -52 -46 -126 -53 -165 -25 -143 -315 -776 -564 -1228 -76
-139 -119 -229 -136 -287 -4 -14 -14 -33 -23 -43 -14 -16 -15 -34 -3 -170 23
-292 82 -673 112 -728 7 -15 21 -19 57 -19 55 0 130 33 297 132 61 36 160 92
220 125 152 83 246 144 278 183 32 38 54 78 112 210 23 52 133 289 245 525
187 398 309 672 380 851 16 40 47 108 70 151 22 43 46 107 54 143 8 42 26 84
49 118 73 107 127 249 127 332 0 72 -29 140 -83 198 -123 130 -319 224 -536
256 -109 17 -221 27 -236 21z m298 -105 c92 -23 216 -75 308 -130 196 -116
220 -277 77 -507 l-39 -61 -97 45 c-53 25 -205 88 -337 140 -229 90 -400 166
-410 183 -3 5 15 70 40 147 50 157 78 200 135 207 67 8 246 -5 323 -24z m-382
-475 c47 -24 152 -68 235 -99 251 -93 418 -165 437 -187 9 -12 17 -32 17 -45
0 -21 -17 -15 -252 101 -257 126 -400 181 -543 210 -44 9 -81 18 -83 19 -2 2
4 20 12 40 l15 35 38 -15 c21 -9 77 -36 124 -59z m-94 -99 c142 -30 289 -92
621 -260 l133 -67 -19 -32 c-11 -18 -25 -31 -31 -29 -7 1 -69 26 -139 56 -70
29 -226 90 -347 135 -290 109 -365 141 -365 154 0 7 3 22 6 35 8 27 40 29 141
8z m-84 -160 c42 -16 77 -34 77 -41 0 -6 -81 -191 -181 -411 -100 -219 -255
-565 -346 -769 -91 -203 -169 -374 -173 -379 -4 -4 -11 1 -14 12 -9 29 -68 78
-110 93 -20 7 -36 20 -36 29 0 21 104 233 182 371 90 158 150 280 252 509 48
107 121 263 162 345 49 97 79 172 87 213 6 34 14 61 17 60 3 -2 40 -16 83 -32z
m297 -113 c85 -31 156 -58 158 -59 9 -6 -68 -176 -234 -515 -101 -208 -234
-491 -295 -630 -117 -269 -186 -409 -200 -409 -4 0 -13 9 -19 20 -6 11 -34 33
-63 50 -60 34 -142 41 -202 16 l-35 -15 14 32 c60 142 536 1202 665 1480 22
48 44 87 48 87 4 0 78 -25 163 -57z m346 -135 c68 -29 124 -58 124 -65 0 -7
-27 -72 -61 -145 -34 -73 -123 -272 -199 -443 -217 -487 -323 -711 -443 -934
l-50 -93 -18 47 c-31 82 -86 125 -159 125 -23 0 -50 -5 -61 -10 -14 -8 -7 12
30 82 28 51 84 172 125 268 99 233 198 444 344 736 101 202 186 386 215 467 4
9 12 17 18 17 7 0 67 -24 135 -52z m-1388 -1333 c40 -33 62 -83 62 -140 0 -94
44 -113 95 -42 77 107 221 78 264 -52 19 -59 42 -82 65 -66 53 39 68 46 97 47
24 1 39 -7 60 -30 27 -31 46 -89 36 -115 -2 -7 -72 -49 -153 -94 l-149 -81
-106 52 c-58 29 -149 65 -202 81 l-95 29 -6 40 c-10 66 -36 328 -36 364 0 40
25 43 68 7z"/>
<path d="M710 1196 c-41 -12 -101 -34 -132 -49 -48 -22 -58 -30 -58 -51 0 -44
27 -47 110 -14 167 67 263 83 293 50 22 -24 21 -52 -3 -137 -40 -141 -25 -170
84 -162 89 6 170 34 316 109 95 48 217 94 226 85 2 -1 -4 -29 -12 -62 -27
-115 -13 -204 37 -239 56 -39 190 -8 339 79 134 78 235 129 380 191 69 30 130
62 137 70 15 21 0 54 -25 54 -31 0 -341 -138 -446 -199 -150 -87 -240 -130
-283 -137 -75 -12 -88 38 -53 203 31 147 -40 157 -293 41 -194 -88 -271 -118
-308 -118 l-37 0 19 61 c37 118 19 207 -46 235 -51 21 -158 17 -245 -10z"/>
</g>
</svg>
