<svg xmlns="http://www.w3.org/2000/svg" xmlns:xlink="http://www.w3.org/1999/xlink" width="500" zoomAndPan="magnify" viewBox="0 0 375 374.999991" height="500" preserveAspectRatio="xMidYMid meet" version="1.0"><path fill="#0f160e" d="M 372.597656 198.960938 C 372.027344 194.808594 371.007812 190.773438 369.539062 186.855469 C 368.066406 182.933594 366.183594 179.21875 363.890625 175.71875 C 355.875 163.796875 344.742188 156.207031 331.167969 151.902344 C 324.808594 149.925781 318.203125 149.339844 311.71875 148.097656 C 307.429688 147.25 303.199219 146.242188 298.769531 145.296875 C 298.941406 144.859375 299.15625 144.445312 299.414062 144.054688 C 308.125 132.953125 315.988281 121.257812 324.039062 109.664062 C 334.699219 94.59375 344.316406 78.890625 352.890625 62.546875 C 356.4375 55.601562 359.757812 48.511719 361.289062 40.796875 C 363.777344 27.859375 351.261719 17.15625 339.601562 21.773438 C 336.660156 22.917969 333.855469 24.34375 331.191406 26.039062 C 325.265625 30.058594 319.679688 34.503906 314.433594 39.378906 C 302.425781 49.992188 292.039062 62.148438 281.746094 74.289062 C 279.136719 77.3125 276.632812 80.4375 273.960938 83.632812 C 273.203125 82.765625 272.640625 81.789062 272.265625 80.699219 C 270.585938 76.800781 268.546875 73.101562 266.144531 69.601562 C 263.839844 66.445312 261.304688 63.488281 258.535156 60.726562 C 255.769531 57.96875 252.808594 55.4375 249.648438 53.136719 C 246.492188 50.835938 243.175781 48.792969 239.699219 47.007812 C 236.222656 45.222656 232.628906 43.714844 228.917969 42.488281 C 213.777344 37.3125 198.089844 35.523438 182.164062 35.621094 C 166.179688 35.871094 150.417969 37.875 134.882812 41.644531 C 117.046875 45.792969 100.066406 52.207031 83.945312 60.890625 C 54.96875 76.355469 32.261719 98.304688 16.472656 127.195312 C 13.757812 132.140625 11.371094 137.234375 9.308594 142.484375 C 7.246094 147.734375 5.523438 153.09375 4.144531 158.5625 C 2.765625 164.03125 1.738281 169.566406 1.066406 175.167969 C 0.394531 180.769531 0.078125 186.386719 0.125 192.027344 C 0.214844 199.40625 0.8125 206.742188 1.917969 214.039062 C 3.855469 227.027344 6.445312 239.832031 11.234375 252.136719 C 20.117188 274.90625 33.046875 295.058594 51.285156 311.445312 C 82.476562 339.476562 119.21875 354.65625 161.0625 357.058594 C 179.027344 357.972656 196.859375 356.820312 214.5625 353.613281 C 230.300781 350.875 245.601562 346.585938 260.472656 340.746094 C 289.164062 329.550781 314.71875 313.625 336.019531 291.253906 C 342.738281 284.355469 348.671875 276.835938 353.8125 268.691406 C 358.957031 260.546875 363.199219 251.960938 366.539062 242.929688 C 371.652344 228.734375 374.976562 214.238281 372.597656 198.960938 Z M 271.359375 229.742188 C 271.183594 228.054688 271.269531 226.386719 271.617188 224.726562 C 271.964844 223.070312 272.558594 221.507812 273.398438 220.035156 C 279.234375 209.871094 287.632812 202.742188 299.003906 199.355469 C 299.726562 199.128906 300.464844 198.984375 301.21875 198.933594 C 302.085938 198.882812 302.953125 198.882812 303.820312 198.933594 C 319.0625 199.195312 324.859375 212.160156 321.597656 223.558594 C 320.78125 226.398438 319.519531 229.03125 317.8125 231.445312 C 316.105469 233.863281 314.050781 235.929688 311.644531 237.652344 C 308.796875 239.757812 305.738281 241.480469 302.464844 242.828125 C 299.191406 244.171875 295.800781 245.097656 292.296875 245.605469 C 283.601562 246.898438 272.601562 242.429688 271.359375 229.742188 Z M 271.359375 229.742188 " fill-opacity="1" fill-rule="nonzero"/><path fill="#89542a" d="M 351.273438 38.730469 C 351.332031 41.046875 350.875 43.257812 349.90625 45.363281 C 347.226562 52.242188 344.035156 58.878906 340.335938 65.269531 C 326.476562 89.90625 310.300781 112.996094 293.902344 135.953125 C 283.253906 150.882812 272.089844 165.398438 260.410156 179.5 C 256.601562 184.078125 252.632812 188.53125 248.789062 193.085938 C 247.957031 194.070312 247.347656 194.09375 246.398438 193.234375 C 238.625 186.269531 229.800781 180.695312 221.515625 174.460938 C 221.082031 174.136719 220.644531 173.800781 220.183594 173.515625 C 218.867188 172.695312 218.941406 171.761719 219.738281 170.542969 C 221.765625 167.59375 223.742188 164.605469 225.710938 161.621094 C 232.429688 151.367188 239.332031 141.242188 247.046875 131.699219 C 254.613281 122.339844 262.101562 112.921875 269.929688 103.777344 C 277.121094 95.378906 284.074219 86.78125 291.226562 78.347656 C 301.46875 66.265625 312.007812 54.445312 323.976562 43.996094 C 328.925781 39.394531 334.375 35.488281 340.324219 32.273438 C 341.09375 31.890625 341.867188 31.476562 342.664062 31.140625 C 347.292969 29.1875 351.171875 31.691406 351.371094 36.730469 C 351.296875 37.3125 351.273438 37.859375 351.273438 38.730469 Z M 351.273438 38.730469 " fill-opacity="1" fill-rule="nonzero"/><path fill="#4d473e" d="M 185.90625 285.890625 C 185.792969 281.734375 184.90625 277.746094 183.246094 273.933594 C 179.949219 266.644531 174.324219 262.089844 167.007812 259.390625 C 164.371094 258.417969 161.65625 257.636719 158.957031 256.902344 C 158.664062 256.851562 158.390625 256.753906 158.132812 256.597656 C 157.878906 256.445312 157.660156 256.25 157.476562 256.011719 C 157.296875 255.777344 157.167969 255.515625 157.089844 255.226562 C 157.007812 254.9375 156.984375 254.648438 157.015625 254.351562 C 156.917969 246.226562 157.949219 238.414062 162.253906 231.246094 C 162.96875 230.019531 163.800781 228.886719 164.757812 227.839844 C 165.714844 226.796875 166.769531 225.867188 167.929688 225.046875 C 169.085938 224.230469 170.316406 223.546875 171.621094 222.996094 C 172.925781 222.445312 174.273438 222.039062 175.667969 221.777344 C 187.015625 219.4375 196.917969 222.597656 204.992188 230.898438 C 206.1875 232.054688 207.246094 233.324219 208.179688 234.699219 C 209.109375 236.078125 209.886719 237.535156 210.519531 239.074219 C 211.148438 240.613281 211.613281 242.199219 211.914062 243.832031 C 212.214844 245.464844 212.347656 247.113281 212.308594 248.777344 C 211.921875 260.125 207.605469 269.789062 198.761719 277.195312 C 195.621094 279.875 192.300781 282.3125 188.804688 284.507812 C 187.949219 285.195312 186.980469 285.65625 185.90625 285.890625 Z M 185.90625 285.890625 " fill-opacity="1" fill-rule="nonzero"/><path fill="#a49c8e" d="M 212.882812 180.792969 C 222.660156 187.015625 231.941406 193.734375 240.886719 200.601562 C 241.113281 201.507812 240.601562 201.84375 240.242188 202.195312 C 233.113281 209.472656 226.007812 216.789062 218.457031 223.632812 C 217.984375 224.066406 217.511719 224.515625 217 224.875 C 214.871094 226.65625 214.824219 226.691406 212.867188 224.601562 C 208.632812 220.148438 203.703125 216.675781 198.089844 214.175781 C 196.058594 213.253906 196.058594 213.230469 196.746094 211.066406 C 197.53125 208.699219 198.519531 206.417969 199.707031 204.222656 C 203.800781 196.410156 207.90625 188.558594 212.882812 180.792969 Z M 212.882812 180.792969 " fill-opacity="1" fill-rule="nonzero"/><path fill="#c15737" d="M 138.03125 296.453125 C 138.03125 295.433594 138.964844 295.085938 139.574219 294.550781 C 143.339844 291.140625 146.523438 287.257812 149.121094 282.890625 C 151.722656 278.527344 153.625 273.878906 154.828125 268.945312 C 155.488281 266.457031 155.5 266.457031 158.0625 266.964844 C 159.617188 267.207031 161.132812 267.609375 162.605469 268.171875 C 164.074219 268.734375 165.472656 269.445312 166.792969 270.300781 C 168.113281 271.160156 169.328125 272.148438 170.441406 273.261719 C 171.554688 274.378906 172.535156 275.597656 173.390625 276.921875 C 174.425781 278.527344 175.167969 280.257812 175.621094 282.117188 C 176.070312 283.972656 176.203125 285.855469 176.015625 287.757812 C 175.855469 290.070312 174.324219 291.488281 172.40625 292.410156 C 168.871094 294.105469 165.175781 295.324219 161.320312 296.066406 C 154.207031 297.699219 147.027344 298.558594 139.734375 297.164062 C 139.125 297.089844 138.402344 297.199219 138.03125 296.453125 Z M 138.03125 296.453125 " fill-opacity="1" fill-rule="nonzero"/><path fill="#f2c993" d="M 352.730469 176.949219 C 344.914062 167.46875 334.664062 162.191406 322.867188 159.753906 C 313.226562 157.738281 303.398438 156.757812 293.816406 154.355469 C 292.449219 153.992188 291.9375 154.578125 291.253906 155.597656 C 280.304688 170.742188 268.484375 185.136719 256.304688 199.308594 C 247.320312 209.796875 237.15625 219.140625 227.351562 228.78125 C 225.808594 230.308594 224.183594 231.742188 222.472656 233.074219 C 219.898438 235.066406 219.898438 234.992188 220.746094 238.289062 C 223.082031 247.46875 222.898438 256.554688 219.089844 265.347656 C 217.175781 269.8125 214.726562 273.960938 211.746094 277.796875 C 208.765625 281.628906 205.351562 285.023438 201.496094 287.980469 C 196.152344 292.265625 190.398438 295.894531 184.230469 298.875 C 178.066406 301.855469 171.644531 304.109375 164.96875 305.636719 C 158.285156 307.128906 151.617188 308.460938 144.710938 308.125 C 140.804688 308.015625 136.960938 307.472656 133.179688 306.496094 C 127.355469 304.828125 123.574219 296.816406 128.6875 291.378906 C 129.792969 290.132812 130.9375 289 132.109375 287.867188 C 134.054688 286.011719 135.824219 284 137.417969 281.832031 C 139.011719 279.667969 140.402344 277.378906 141.597656 274.96875 C 142.789062 272.558594 143.765625 270.0625 144.523438 267.480469 C 145.28125 264.902344 145.808594 262.273438 146.105469 259.601562 C 146.566406 255.730469 146.765625 251.824219 147.25 247.941406 C 147.972656 242.15625 148.878906 236.320312 151.292969 230.945312 C 155.585938 221.304688 162.390625 214.472656 173.078125 212.195312 C 176.695312 211.382812 180.351562 211.078125 184.054688 211.277344 C 184.339844 211.34375 184.625 211.351562 184.914062 211.304688 C 185.203125 211.257812 185.46875 211.15625 185.71875 211 C 185.964844 210.84375 186.171875 210.648438 186.34375 210.410156 C 186.511719 210.167969 186.628906 209.90625 186.691406 209.621094 C 190.457031 199.882812 195.117188 190.585938 200.664062 181.738281 C 215.65625 156.773438 232.585938 133.195312 251.453125 111.007812 C 255.359375 106.378906 259.066406 101.5625 262.910156 96.835938 C 263.3125 96.363281 263.648438 95.84375 263.917969 95.285156 C 264.191406 94.726562 264.386719 94.140625 264.507812 93.53125 C 264.628906 92.921875 264.671875 92.308594 264.640625 91.6875 C 264.605469 91.066406 264.492188 90.460938 264.304688 89.867188 C 263.121094 85.078125 261.144531 80.640625 258.382812 76.554688 C 249.847656 63.976562 237.742188 56.363281 223.542969 51.671875 C 210.878906 47.503906 197.714844 46.195312 184.464844 45.875 C 171.734375 45.585938 159.195312 47.28125 146.652344 49.605469 C 135.671875 51.621094 124.9375 54.53125 114.441406 58.332031 C 103.945312 62.128906 93.832031 66.769531 84.109375 72.25 C 74.808594 77.488281 66.15625 83.636719 58.144531 90.6875 C 50.136719 97.742188 42.941406 105.546875 36.566406 114.105469 C 19.308594 137.058594 9.929688 162.777344 10.078125 188.222656 C 9.894531 197.65625 10.546875 207.035156 12.03125 216.351562 C 14.078125 228.800781 17.496094 240.863281 22.285156 252.535156 C 25.210938 259.910156 28.753906 266.976562 32.914062 273.734375 C 37.070312 280.496094 41.78125 286.84375 47.042969 292.785156 C 51.335938 297.539062 55.898438 302.019531 60.726562 306.226562 C 65.558594 310.433594 70.625 314.335938 75.925781 317.9375 C 81.226562 321.535156 86.722656 324.800781 92.414062 327.738281 C 98.109375 330.675781 103.957031 333.261719 109.960938 335.496094 C 119.125 339.207031 128.570312 341.957031 138.292969 343.746094 C 146.105469 344.988281 153.957031 345.886719 161.84375 346.609375 C 167.140625 347.222656 172.449219 347.386719 177.769531 347.09375 C 184.898438 346.570312 192.066406 346.285156 199.15625 345.363281 C 207.433594 344.257812 215.707031 343.222656 223.84375 341.371094 C 258.394531 333.542969 289.5625 318.863281 316.648438 295.90625 C 328.46875 285.996094 338.488281 274.511719 346.707031 261.453125 C 351.117188 254.328125 354.71875 246.8125 357.515625 238.910156 C 360.308594 231.011719 362.230469 222.902344 363.28125 214.585938 C 365.171875 200.726562 361.886719 187.984375 352.730469 176.949219 Z M 176.277344 68.207031 C 198.25 56.164062 224.476562 68.382812 226.828125 94.097656 C 228.074219 107.375 223.445312 118.210938 212.867188 126.25 C 193.734375 140.792969 165.589844 129.882812 160.078125 107.984375 C 159.285156 104.914062 158.914062 101.796875 158.96875 98.628906 C 159.554688 85.550781 164.359375 74.726562 176.277344 68.207031 Z M 74.777344 105.546875 C 81.320312 97.667969 89.285156 92.132812 99.660156 90.390625 C 114.863281 87.902344 131.488281 97.59375 136.101562 112.324219 C 142.660156 133.253906 131.449219 154.628906 109.601562 159.992188 C 90.9375 164.582031 71.578125 152.527344 67.558594 134.859375 C 67.199219 132.59375 66.976562 130.316406 66.886719 128.027344 C 66.847656 125.992188 66.984375 123.972656 67.304688 121.964844 C 67.628906 119.957031 68.125 117.992188 68.796875 116.074219 C 69.472656 114.152344 70.308594 112.308594 71.3125 110.539062 C 72.320312 108.773438 73.472656 107.105469 74.777344 105.546875 Z M 61.015625 238.671875 C 47.464844 239.144531 33.644531 229.902344 30.730469 212.820312 C 30.238281 210.253906 30.003906 207.667969 30.027344 205.054688 C 30.054688 202.445312 30.339844 199.859375 30.882812 197.308594 C 31.429688 194.753906 32.222656 192.277344 33.265625 189.882812 C 34.308594 187.488281 35.578125 185.222656 37.078125 183.082031 C 38.4375 181.046875 40.007812 179.179688 41.777344 177.488281 C 43.550781 175.796875 45.488281 174.320312 47.585938 173.054688 C 49.6875 171.792969 51.898438 170.769531 54.222656 169.996094 C 56.546875 169.21875 58.925781 168.703125 61.363281 168.453125 C 64.417969 168.171875 67.425781 168.433594 70.382812 169.234375 C 71.308594 169.453125 72.21875 169.707031 73.121094 170 C 74.023438 170.292969 74.910156 170.621094 75.785156 170.988281 C 76.660156 171.355469 77.519531 171.757812 78.359375 172.195312 C 79.199219 172.636719 80.019531 173.109375 80.824219 173.613281 C 81.625 174.121094 82.402344 174.660156 83.160156 175.230469 C 83.917969 175.800781 84.648438 176.402344 85.355469 177.035156 C 86.0625 177.667969 86.742188 178.328125 87.394531 179.015625 C 88.042969 179.707031 88.667969 180.421875 89.257812 181.160156 C 89.851562 181.902344 90.410156 182.664062 90.941406 183.453125 C 91.46875 184.238281 91.964844 185.046875 92.425781 185.875 C 92.886719 186.703125 93.3125 187.550781 93.703125 188.414062 C 94.097656 189.277344 94.449219 190.15625 94.769531 191.050781 C 95.085938 191.941406 95.367188 192.847656 95.609375 193.761719 C 95.851562 194.679688 96.058594 195.605469 96.222656 196.539062 C 96.390625 197.472656 96.515625 198.410156 96.601562 199.355469 C 96.691406 200.300781 96.738281 201.246094 96.75 202.195312 C 97.207031 219.128906 84.21875 235.238281 67.496094 238.277344 C 65.335938 238.570312 63.160156 238.703125 60.976562 238.671875 Z M 109.9375 282.082031 C 107.867188 285.589844 105.171875 288.523438 101.851562 290.878906 C 100.378906 292.003906 98.757812 292.835938 96.988281 293.382812 C 95.21875 293.925781 93.410156 294.152344 91.558594 294.054688 C 78.792969 294.4375 72.289062 284.957031 71.703125 274.855469 C 71.042969 262.722656 80.996094 248.851562 95.082031 246.414062 C 99.851562 245.515625 104.570312 245.734375 109.238281 247.058594 C 114.21875 248.503906 116.605469 251.351562 116.40625 256.539062 C 116.058594 265.472656 114.589844 274.21875 109.898438 282.082031 Z M 317.394531 245.40625 C 313.546875 248.375 309.34375 250.699219 304.78125 252.375 C 300.21875 254.050781 295.511719 255.003906 290.65625 255.234375 C 275.613281 255.757812 263.757812 246.773438 261.640625 232.476562 C 261.171875 229.328125 261.253906 226.195312 261.898438 223.074219 C 262.539062 219.957031 263.699219 217.042969 265.375 214.335938 C 273.148438 201.472656 284.136719 192.414062 299.042969 189.253906 C 308.359375 187.277344 316.597656 190.5 323.601562 196.71875 C 329.140625 201.597656 332.199219 209.160156 332.222656 218.503906 C 331.726562 228.855469 326.8125 238.449219 317.394531 245.40625 Z M 317.394531 245.40625 " fill-opacity="1" fill-rule="nonzero"/><path fill="#e47d33" d="M 103.652344 150.847656 C 89.707031 150.734375 79.878906 143.441406 77.390625 132.480469 C 75.472656 124.046875 77.886719 116.628906 83.671875 110.285156 C 88.898438 104.550781 95.34375 100.753906 103.070312 100.070312 C 104.070312 99.953125 105.074219 99.910156 106.082031 99.9375 C 107.089844 99.964844 108.089844 100.0625 109.082031 100.230469 C 110.074219 100.402344 111.050781 100.640625 112.011719 100.953125 C 112.96875 101.261719 113.902344 101.636719 114.804688 102.078125 C 115.710938 102.523438 116.582031 103.027344 117.414062 103.59375 C 118.246094 104.160156 119.035156 104.785156 119.777344 105.464844 C 120.523438 106.144531 121.214844 106.871094 121.855469 107.652344 C 122.496094 108.429688 123.074219 109.25 123.597656 110.109375 C 129.457031 118.996094 129.285156 128.363281 124.183594 137.484375 C 119.304688 146.230469 111.605469 150.632812 103.652344 150.847656 Z M 103.652344 150.847656 " fill-opacity="1" fill-rule="nonzero"/><path fill="#71acb7" d="M 217.085938 98.203125 C 217.421875 110.234375 208.378906 119.355469 199.667969 121.917969 C 189.242188 125.027344 172.894531 120.511719 169.410156 103.804688 C 168.894531 101.40625 168.722656 98.984375 168.882812 96.539062 C 169.046875 94.09375 169.542969 91.714844 170.367188 89.40625 C 173.8125 79.628906 181.277344 74.875 191.171875 73.730469 C 206.761719 71.914062 217.546875 84.445312 217.085938 98.203125 Z M 217.085938 98.203125 " fill-opacity="1" fill-rule="nonzero"/><path fill="#f5ba3c" d="M 39.675781 204.695312 C 39.671875 202.691406 39.886719 200.710938 40.320312 198.753906 C 40.753906 196.796875 41.398438 194.910156 42.25 193.09375 C 43.101562 191.28125 44.144531 189.582031 45.371094 187.996094 C 46.597656 186.414062 47.984375 184.980469 49.53125 183.707031 C 61.25 173.863281 74.675781 178.640625 81.53125 187.164062 C 88.386719 195.6875 88.722656 204.957031 84.144531 214.335938 C 79.664062 223.46875 72.113281 228.597656 61.648438 228.882812 C 47.902344 229.265625 40.847656 218.355469 39.863281 208.378906 C 39.753906 207.34375 39.753906 206.25 39.675781 204.695312 Z M 39.675781 204.695312 " fill-opacity="1" fill-rule="nonzero"/><path fill="#c15737" d="M 100.132812 256.167969 C 107.796875 256.328125 106.613281 256.9375 105.882812 263.023438 C 105.378906 266.5625 104.441406 269.984375 103.070312 273.289062 C 101.910156 276.253906 100.179688 278.84375 97.878906 281.050781 C 94.546875 284.261719 90.414062 285.132812 86.894531 283.414062 C 85.976562 282.929688 85.15625 282.316406 84.429688 281.574219 C 83.699219 280.835938 83.101562 280.003906 82.628906 279.082031 C 82.15625 278.160156 81.832031 277.1875 81.65625 276.164062 C 81.484375 275.140625 81.464844 274.117188 81.605469 273.089844 C 82.503906 265.621094 89.070312 257.609375 96.050781 256.453125 C 97.40625 256.277344 98.765625 256.179688 100.132812 256.167969 Z M 100.132812 256.167969 " fill-opacity="1" fill-rule="nonzero"/></svg>